HIERARCHY
ROOT Hips
{
	OFFSET 0.00000 0.00000 0.00000
	CHANNELS 6 Xposition Yposition Zposition Zrotation Yrotation Xrotation 
	JOINT LHipJoint
	{
		OFFSET 0 0 0
		CHANNELS 3 Zrotation Yrotation Xrotation
		JOINT LeftHip
		{
			OFFSET 1.48831 -1.59570 0.95625
			CHANNELS 3 Zrotation Yrotation Xrotation
			JOINT LeftKnee
			{
				OFFSET 2.20856 -6.06797 0.00000
				CHANNELS 3 Zrotation Yrotation Xrotation
				JOINT LeftAnkle
				{
					OFFSET 2.62924 -7.22379 0.00000
					CHANNELS 3 Zrotation Yrotation Xrotation
					JOINT LeftToe
					{
						OFFSET 0.16802 -0.46163 2.41673
						CHANNELS 3 Zrotation Yrotation Xrotation
						End Site
						{
							OFFSET 0.00000 -0.00000 1.23760
						}
					}
				}
			}
		}
	}
	JOINT RHipJoint
	{
		OFFSET 0 0 0
		CHANNELS 3 Zrotation Yrotation Xrotation
		JOINT RightHip
		{
			OFFSET -1.56796 -1.59570 0.95625
			CHANNELS 3 Zrotation Yrotation Xrotation
			JOINT RightKnee
			{
				OFFSET -2.29239 -6.29829 0.00000
				CHANNELS 3 Zrotation Yrotation Xrotation
				JOINT RightAnkle
				{
					OFFSET -2.66963 -7.33475 0.00000
					CHANNELS 3 Zrotation Yrotation Xrotation
					JOINT RightToe
					{
						OFFSET -0.18185 -0.49964 2.34359
						CHANNELS 3 Zrotation Yrotation Xrotation
						End Site
						{
							OFFSET -0.00000 -0.00000 1.20477
						}
					}
				}
			}
		}
	}
	JOINT lowerback
	{
		OFFSET 0 0 0
		CHANNELS 3 Zrotation Yrotation Xrotation
		JOINT Chest
		{
			OFFSET 0.03505 2.15832 -0.34324
			CHANNELS 3 Zrotation Yrotation Xrotation
			JOINT Chest2
			{
				OFFSET -0.01089 2.17963 0.04689
				CHANNELS 3 Zrotation Yrotation Xrotation
				JOINT lowerneck
				{
					OFFSET 0 0 0
					CHANNELS 3 Zrotation Yrotation Xrotation
					JOINT Neck
					{
						OFFSET 0.04686 1.69404 0.22159
						CHANNELS 3 Zrotation Yrotation Xrotation
						JOINT Head
						{
							OFFSET 0.00265 1.69305 -0.01513
							CHANNELS 3 Zrotation Yrotation Xrotation
							End Site
							{
								OFFSET -0.00415 1.80215 -0.03034
							}
						}
					}
				}
				JOINT LeftCollar
				{
					OFFSET 0 0 0
					CHANNELS 3 Zrotation Yrotation Xrotation
					JOINT LeftShoulder
					{
						OFFSET 3.67184 1.11724 -0.19002
CHANNELS 3 Zrotation Xrotation Yrotation
						JOINT LeftElbow
						{
OFFSET 0 -5.177140 -0.000000
CHANNELS 3 Zrotation Xrotation Yrotation
							JOINT LeftWrist
							{
OFFSET 0 -3.436790 -0.000000
CHANNELS 3 Zrotation Xrotation Yrotation
								JOINT lhand
								{
									OFFSET 0 0 0
CHANNELS 3 Zrotation Xrotation Yrotation
									JOINT LFingers
									{
OFFSET 0 -0.573120 -0.000000
CHANNELS 3 Zrotation Xrotation Yrotation
										End Site
										{
OFFSET 0 -0.462060 -0.000000
										}
									}
								}
								JOINT LThumb
								{
OFFSET 0 0.000000 0.000000
CHANNELS 3 Zrotation Xrotation Yrotation
									End Site
									{
OFFSET 0 -0.469120 0.469120
									}
								}
							}
						}
					}
				}
				JOINT RightCollar
				{
					OFFSET 0 0 0
					CHANNELS 3 Zrotation Yrotation Xrotation
					JOINT RightShoulder
					{
						OFFSET -3.59596 0.95831 -0.26050
CHANNELS 3 Zrotation Xrotation Yrotation
						JOINT RightElbow
						{
OFFSET 0 -5.239080 -0.000000
CHANNELS 3 Zrotation Xrotation Yrotation
							JOINT RightWrist
							{
OFFSET 0 -3.464850 -0.000000
CHANNELS 3 Zrotation Xrotation Yrotation
								JOINT rhand
								{
									OFFSET 0 0 0
CHANNELS 3 Zrotation Xrotation Yrotation
									JOINT RFingers
									{
OFFSET 0 -0.608750 -0.000000
CHANNELS 3 Zrotation Xrotation Yrotation
										End Site
										{
OFFSET 0 -0.490790 -0.000000
										}
									}
								}
								JOINT RThumb
								{
OFFSET 0 0.000000 0.000000
CHANNELS 3 Zrotation Xrotation Yrotation
									End Site
									{
OFFSET 0 -0.498290 0.498290
									}
								}
							}
						}
					}
				}
			}
		}
	}
}
MOTION
Frames: 5
Frame Time: 0.008333333333333333
47.738200 15.880900 13.672500 -177.761000 -47.992600 174.788000 0.000000 0.000000 0.000000 -20.047500 4.152200 -0.934100 1.891000 8.635300 24.660800 1.815700 6.030200 -28.214700 0.209000 2.943400 8.121100 0.000000 0.000000 0.000000 20.644900 4.944200 -6.931200 -3.773900 -11.853300 35.215100 -1.872500 0.739100 -25.679600 -0.050900 -1.456000 4.004500 0.245400 -1.382000 0.291400 0.531400 -1.968500 3.966800 0.344900 -1.025500 3.927100 -1.855200 -2.670900 -4.544100 8.148400 -4.349600 7.792900 2.855300 -1.986600 3.625100 -0.000000 0.000000 0.000000 -0.133900 -1.278400 -9.671200 12.670900 -20.803100 2.335100 15.721900 -20.084500 -7.649200 0.000000 0.000000 0.000000 -7.125000 0.000000 0.000000 -9.476800 37.767000 -1.705800 -0.000000 0.000000 0.000000 -2.223700 0.758000 22.186000 -16.391600 -26.048800 -3.816300 -18.672900 2.151000 5.822100 0.000000 0.000000 0.000000 7.125000 0.000000 -0.000000 6.745000 36.053500 1.491800
47.739800 15.884125 13.666374 -177.727247 -47.738223 174.808755 0.000000 0.000000 0.000000 -20.081048 4.289151 -0.986132 1.878923 8.609145 24.580185 1.717562 7.038651 -28.143747 0.114590 2.180057 6.003668 0.000000 0.000000 0.000000 20.700729 5.017453 -6.906228 -3.754923 -11.826897 35.122291 -1.865249 0.963801 -25.563586 -0.066926 -1.669317 4.592547 0.262199 -1.378777 0.172333 0.561779 -1.967778 4.002005 0.362754 -1.025377 4.031765 -1.781740 -2.677700 -4.494073 7.929747 -4.341972 7.822052 2.766214 -1.987349 3.614124 0.000000 0.000000 0.000000 -0.157904 -1.459420 -9.637844 12.617046 -20.723494 2.315999 15.839186 -19.954587 -7.511310 0.000000 0.000000 0.000000 -7.125000 0.000000 0.000000 -9.355488 37.633661 -1.714426 0.000000 0.000000 0.000000 -2.301911 0.881212 22.444028 -16.593296 -26.318503 -3.905284 -18.674948 1.979008 5.850205 0.000000 0.000000 0.000000 7.125000 0.000000 0.000000 6.746427 36.082980 1.487275
47.741150 15.885900 13.661099 -177.661972 -47.549508 174.810491 0.000000 0.000000 0.000000 -19.984253 4.577934 -1.072169 1.864046 8.576942 24.480674 1.622885 7.592942 -27.841724 0.053791 1.495332 4.112924 0.000000 0.000000 0.000000 20.747568 5.008693 -6.950267 -3.745699 -11.814049 35.077346 -1.856348 1.150645 -25.447570 -0.073401 -1.748260 4.810477 0.269055 -1.410912 0.048221 0.609516 -2.015217 4.040509 0.402162 -1.050009 4.144076 -1.716889 -2.655589 -4.531923 7.744366 -4.295781 7.831952 2.691887 -1.966041 3.613053 0.000000 0.000000 0.000000 -0.195110 -1.595981 -9.566374 12.602099 -20.701399 2.310700 15.807909 -19.780027 -7.503784 0.000000 0.000000 0.000000 -7.125000 0.000000 0.000000 -9.380641 37.623883 -1.721400 0.000000 0.000000 0.000000 -2.407131 0.977578 22.637989 -16.723073 -26.491281 -3.963011 -18.592060 1.865229 5.881555 0.000000 0.000000 0.000000 7.125000 0.000000 0.000000 6.819334 36.111403 1.498757
47.742726 15.883798 13.656173 -177.555472 -47.430823 174.786508 0.000000 0.000000 0.000000 -19.766493 4.965271 -1.164836 1.845742 8.537057 24.357695 1.584820 7.493747 -27.513657 0.031846 1.151233 3.165092 0.000000 0.000000 0.000000 20.810887 4.969331 -7.052330 -3.751606 -11.822358 35.106452 -1.848548 1.320844 -25.345793 -0.075551 -1.773410 4.880003 0.265055 -1.466849 -0.053715 0.673672 -2.093733 4.055751 0.464282 -1.090667 4.220876 -1.683144 -2.614537 -4.616078 7.669091 -4.232306 7.819843 2.661996 -1.933540 3.617626 0.000000 0.000000 0.000000 -0.220782 -1.721727 -9.479982 12.592220 -20.686793 2.307223 15.632744 -19.473494 -7.675484 0.000000 0.000000 0.000000 -7.125000 0.000000 0.000000 -9.556332 37.787957 -1.715422 0.000000 0.000000 0.000000 -2.523640 1.100474 22.698610 -16.765849 -26.548099 -3.982150 -18.424855 1.848711 5.902475 0.000000 0.000000 0.000000 7.125000 0.000000 0.000000 6.961162 36.124248 1.528159
47.746103 15.878596 13.651398 -177.552020 -47.430138 174.871053 0.000000 0.000000 0.000000 -19.612848 5.309532 -1.266738 1.820586 8.481869 24.187704 1.568492 7.153236 -27.182140 0.023097 0.981928 2.699003 0.000000 0.000000 0.000000 20.781365 4.903261 -7.252720 -3.778421 -11.859529 35.236702 -1.847802 1.500875 -25.291692 -0.076799 -1.787186 4.917960 0.136909 -1.533838 -0.154327 0.720621 -2.181649 4.049590 0.577870 -1.139428 4.279010 -1.658603 -2.602807 -4.654964 7.662116 -4.213807 7.778252 2.655306 -1.923504 3.608577 0.000000 0.000000 0.000000 -0.235901 -1.847665 -9.559303 12.597706 -20.695008 2.309202 15.635171 -19.395531 -7.565239 0.000000 0.000000 0.000000 -7.125000 0.000000 0.000000 -9.536114 37.675540 -1.738322 0.000000 0.000000 0.000000 -2.603731 1.212962 22.526854 -16.697129 -26.456806 -3.951469 -18.492272 1.959193 5.902306 0.000000 0.000000 0.000000 7.125000 0.000000 0.000000 6.905041 36.127710 1.515085
